<svg width="16" height="14" viewBox="0 0 16 14" fill="none" xmlns="http://www.w3.org/2000/svg">
    <path
        d="M8.44341 14C4.26992 14 0.886841 10.8661 0.886841 7C0.886841 3.1339 4.26992 0 8.44341 0C12.6169 0 16 3.1339 16 7C16 10.8661 12.6169 14 8.44341 14ZM11.5613 8.2222C11.7222 8.1151 11.8612 7.9786 11.9693 7.8197C12.4272 7.1442 12.2451 6.2307 11.5613 5.7778L8.49631 3.7492C8.25463 3.58789 7.96448 3.50075 7.6666 3.5C6.84369 3.5 6.17644 4.1587 6.17644 4.9714V9.0286C6.17644 9.3205 6.2641 9.6054 6.42883 9.8476C6.88751 10.5231 7.81319 10.703 8.49706 10.2508L11.5613 8.2222ZM7.63184 4.991L10.696 7.0196L7.63108 9.0475V4.991H7.63184Z"
        fill="#D2D8DA" />
</svg>
