<svg width="32" height="32" viewBox="0 0 32 32" fill="none" xmlns="http://www.w3.org/2000/svg">
    <path fill-rule="evenodd" clip-rule="evenodd"
        d="M16 7.36563L17.02 6.26972C19.8369 3.24343 24.4038 3.24343 27.2207 6.26972C30.0375 9.296 30.0375 14.2026 27.2207 17.2289L18.0401 27.0921C16.9134 28.3026 15.0866 28.3026 13.9598 27.0921L4.77925 17.2289C1.96242 14.2026 1.96242 9.296 4.77925 6.26972C7.59608 3.24343 12.1631 3.24343 14.9799 6.26972L16 7.36563ZM22.6666 7C22.1143 7 21.6666 7.44772 21.6666 8C21.6666 8.55229 22.1143 9 22.6666 9C23.5871 9 24.3333 9.74619 24.3333 10.6667C24.3333 11.219 24.781 11.6667 25.3333 11.6667C25.8856 11.6667 26.3333 11.219 26.3333 10.6667C26.3333 8.64162 24.6917 7 22.6666 7Z"
        fill="#EB5757" />
</svg>
