<svg width="32" height="32" viewBox="0 0 32 32" fill="none" xmlns="http://www.w3.org/2000/svg">
    <path fill-rule="evenodd" clip-rule="evenodd"
        d="M23.3737 7.29289C22.9832 6.90237 22.35 6.90237 21.9595 7.29289C21.569 7.68342 21.569 8.31658 21.9595 8.70711L22.9191 9.66667H17.3333C16.781 9.66667 16.3333 10.1144 16.3333 10.6667C16.3333 11.219 16.781 11.6667 17.3333 11.6667H22.9191L21.9595 12.6262C21.569 13.0168 21.569 13.6499 21.9595 14.0404C22.35 14.431 22.9832 14.431 23.3737 14.0404L25.0976 12.3166C26.0088 11.4054 26.0088 9.92797 25.0976 9.01675L23.3737 7.29289ZM6.66663 20.3333C6.11434 20.3333 5.66663 20.781 5.66663 21.3333C5.66663 21.8856 6.11434 22.3333 6.66663 22.3333H14.6666C15.2189 22.3333 15.6666 21.8856 15.6666 21.3333C15.6666 20.781 15.2189 20.3333 14.6666 20.3333H6.66663ZM23.3737 24.7071C22.9832 25.0976 22.35 25.0976 21.9595 24.7071C21.569 24.3166 21.569 23.6834 21.9595 23.2929L22.9191 22.3333H21.9628C19.5639 22.3333 17.3709 20.978 16.2981 18.8324L13.913 14.0621C13.1789 12.594 11.6785 11.6667 10.0371 11.6667H6.66663C6.11434 11.6667 5.66663 11.219 5.66663 10.6667C5.66663 10.1144 6.11434 9.66667 6.66663 9.66667H10.0371C12.436 9.66667 14.629 11.022 15.7018 13.1676L18.087 17.9379C18.821 19.406 20.3215 20.3333 21.9628 20.3333H22.9191L21.9595 19.3738C21.569 18.9832 21.569 18.3501 21.9595 17.9596C22.35 17.569 22.9832 17.569 23.3737 17.9596L25.0976 19.6834C26.0088 20.5946 26.0088 22.072 25.0976 22.9832L23.3737 24.7071Z"
        fill="#B0B9BF" />
</svg>
