<svg width="32" height="32" viewBox="0 0 32 32" fill="none" xmlns="http://www.w3.org/2000/svg">
    <path fill-rule="evenodd" clip-rule="evenodd"
        d="M23.3737 5.95956C22.9832 5.56903 22.35 5.56903 21.9595 5.95956C21.569 6.35008 21.569 6.98325 21.9595 7.37377L22.919 8.33333H13.3333C9.83545 8.33333 6.99992 11.1689 6.99992 14.6667V16C6.99992 16.5523 7.44764 17 7.99992 17C8.55221 17 8.99992 16.5523 8.99992 16V14.6667C8.99992 12.2734 10.94 10.3333 13.3333 10.3333H22.919L21.9595 11.2929C21.569 11.6834 21.569 12.3166 21.9595 12.7071C22.35 13.0976 22.9832 13.0976 23.3737 12.7071L25.0976 10.9832C26.0088 10.072 26.0088 8.59464 25.0976 7.68341L23.3737 5.95956ZM8.62615 26.0404C9.01667 26.431 9.64984 26.431 10.0404 26.0404C10.4309 25.6499 10.4309 25.0168 10.0404 24.6262L9.0808 23.6667H18.6666C22.1644 23.6667 24.9999 20.8311 24.9999 17.3333V16C24.9999 15.4477 24.5522 15 23.9999 15C23.4476 15 22.9999 15.4477 22.9999 16V17.3333C22.9999 19.7266 21.0598 21.6667 18.6666 21.6667H9.0808L10.0404 20.7071C10.4309 20.3166 10.4309 19.6834 10.0404 19.2929C9.64984 18.9024 9.01667 18.9024 8.62615 19.2929L6.90229 21.0167C5.99107 21.928 5.99107 23.4054 6.90229 24.3166L8.62615 26.0404Z"
        fill="#B0B9BF" />
</svg>
